<?xml version="1.0" encoding="UTF-8"?>
<svg xmlns="http://www.w3.org/2000/svg" width="1148.8" height="943.9" viewBox="0 0 1148.8 943.9" font-family="Inter, 'Helvetica Neue', Arial, sans-serif">
<rect width="1148.8" height="943.9" fill="#ffffff"/>
<line x1="24" y1="139.9" x2="1124.8" y2="139.9" stroke="#eceff3" stroke-width="1"/>
<line x1="24" y1="267.9" x2="1124.8" y2="267.9" stroke="#eceff3" stroke-width="1"/>
<line x1="24" y1="395.9" x2="1124.8" y2="395.9" stroke="#eceff3" stroke-width="1"/>
<line x1="24" y1="523.9" x2="1124.8" y2="523.9" stroke="#eceff3" stroke-width="1"/>
<line x1="24" y1="651.9" x2="1124.8" y2="651.9" stroke="#eceff3" stroke-width="1"/>
<line x1="24" y1="779.9" x2="1124.8" y2="779.9" stroke="#eceff3" stroke-width="1"/>
<line x1="24" y1="907.9" x2="1124.8" y2="907.9" stroke="#eceff3" stroke-width="1"/>
<line x1="129" y1="139.9" x2="129" y2="267.9" stroke="#39b1d1" stroke-width="3" stroke-linecap="round" opacity="0.85"/>
<line x1="339" y1="331.9" x2="339" y2="523.9" stroke="#d6fb61" stroke-width="3" stroke-linecap="round" opacity="0.85"/>
<line x1="549" y1="139.9" x2="549" y2="523.9" stroke="#f6850c" stroke-width="3" stroke-linecap="round" opacity="0.85"/>
<line x1="759" y1="267.9" x2="759" y2="523.9" stroke="#de3e3e" stroke-width="3" stroke-linecap="round" opacity="0.85"/>
<line x1="969" y1="544.15" x2="969" y2="907.9" stroke="#8b5cf6" stroke-width="3" stroke-linecap="round" opacity="0.85"/>
<path d="M 129 267.9 L 129 304.4 L 339 304.4 L 339 331.9" fill="none" stroke="#39b1d1" stroke-width="2" stroke-dasharray="5 4"/>
<polygon points="339,331.9 335,322.9 343,322.9" fill="#39b1d1"/>
<path d="M 339 523.9 L 339 544.15 L 969 544.15" fill="none" stroke="#d6fb61" stroke-width="2"/>
<polygon points="969,544.15 960,548.15 960,540.15" fill="#d6fb61"/>
<path d="M 549 523.9 L 549 544.15 L 969 544.15" fill="none" stroke="#f6850c" stroke-width="2"/>
<polygon points="969,544.15 960,548.15 960,540.15" fill="#f6850c"/>
<path d="M 759 523.9 L 759 544.15 L 969 544.15" fill="none" stroke="#de3e3e" stroke-width="2"/>
<polygon points="969,544.15 960,548.15 960,540.15" fill="#de3e3e"/>
<rect x="100.7" y="128.4" width="56.6" height="23" rx="4" fill="#ffffff"/>
<rect x="102.2" y="129.9" width="53.6" height="20" rx="4" fill="#39b1d1"/>
<text x="129" y="143.64" text-anchor="middle" font-size="11" fill="#ffffff">Anfang</text>
<rect x="100.7" y="256.4" width="56.6" height="23" rx="4" fill="#ffffff"/>
<rect x="102.2" y="257.9" width="53.6" height="20" rx="4" fill="#39b1d1"/>
<text x="129" y="271.64" text-anchor="middle" font-size="11" fill="#ffffff">+2 min</text>
<rect x="310.7" y="320.4" width="56.6" height="23" rx="4" fill="#ffffff"/>
<rect x="312.2" y="321.9" width="53.6" height="20" rx="4" fill="#d6fb61"/>
<text x="339" y="335.64" text-anchor="middle" font-size="11" fill="#1f2937">+3 min</text>
<rect x="520.7" y="128.4" width="56.6" height="23" rx="4" fill="#ffffff"/>
<rect x="522.2" y="129.9" width="53.6" height="20" rx="4" fill="#f6850c"/>
<text x="549" y="143.64" text-anchor="middle" font-size="11" fill="#ffffff">Anfang</text>
<rect x="520.7" y="384.4" width="56.6" height="23" rx="4" fill="#ffffff"/>
<rect x="522.2" y="385.9" width="53.6" height="20" rx="4" fill="#f6850c"/>
<text x="549" y="399.64" text-anchor="middle" font-size="11" fill="#ffffff">+4 min</text>
<rect x="730.7" y="256.4" width="56.6" height="23" rx="4" fill="#ffffff"/>
<rect x="732.2" y="257.9" width="53.6" height="20" rx="4" fill="#de3e3e"/>
<text x="759" y="271.64" text-anchor="middle" font-size="11" fill="#ffffff">+2 min</text>
<rect x="730.7" y="384.4" width="56.6" height="23" rx="4" fill="#ffffff"/>
<rect x="732.2" y="385.9" width="53.6" height="20" rx="4" fill="#de3e3e"/>
<text x="759" y="399.64" text-anchor="middle" font-size="11" fill="#ffffff">+2 min</text>
<rect x="310.7" y="512.4" width="56.6" height="23" rx="4" fill="#ffffff"/>
<rect x="312.2" y="513.9" width="53.6" height="20" rx="4" fill="#d6fb61"/>
<text x="339" y="527.64" text-anchor="middle" font-size="11" fill="#1f2937">+3 min</text>
<rect x="520.7" y="512.4" width="56.6" height="23" rx="4" fill="#ffffff"/>
<rect x="522.2" y="513.9" width="53.6" height="20" rx="4" fill="#f6850c"/>
<text x="549" y="527.64" text-anchor="middle" font-size="11" fill="#ffffff">+2 min</text>
<rect x="730.7" y="512.4" width="56.6" height="23" rx="4" fill="#ffffff"/>
<rect x="732.2" y="513.9" width="53.6" height="20" rx="4" fill="#de3e3e"/>
<text x="759" y="527.64" text-anchor="middle" font-size="11" fill="#ffffff">+2 min</text>
<rect x="940.7" y="576.4" width="56.6" height="23" rx="4" fill="#ffffff"/>
<rect x="942.2" y="577.9" width="53.6" height="20" rx="4" fill="#8b5cf6"/>
<text x="969" y="591.64" text-anchor="middle" font-size="11" fill="#ffffff">+7 min</text>
<rect x="940.7" y="896.4" width="56.6" height="23" rx="4" fill="#ffffff"/>
<rect x="942.2" y="897.9" width="53.6" height="20" rx="4" fill="#8b5cf6"/>
<text x="969" y="911.64" text-anchor="middle" font-size="11" fill="#ffffff">+5 min</text>
<rect x="36" y="83.9" width="186" height="26" rx="6" fill="#39b1d1"/>
<text x="129" y="101.32" text-anchor="middle" font-size="13" fill="#ffffff">Teig</text>
<rect x="246" y="83.9" width="186" height="26" rx="6" fill="#d6fb61"/>
<text x="339" y="101.32" text-anchor="middle" font-size="13" fill="#1f2937">Nudelplatten</text>
<rect x="456" y="83.9" width="186" height="26" rx="6" fill="#f6850c"/>
<text x="549" y="101.32" text-anchor="middle" font-size="13" fill="#ffffff">Ragù</text>
<rect x="666" y="83.9" width="186" height="26" rx="6" fill="#de3e3e"/>
<text x="759" y="101.32" text-anchor="middle" font-size="13" fill="#ffffff">Béchamel</text>
<rect x="876" y="83.9" width="186" height="26" rx="6" fill="#8b5cf6"/>
<text x="969" y="101.32" text-anchor="middle" font-size="13" fill="#ffffff">Backen</text>
<text x="586.4" y="22" text-anchor="middle" font-size="22" fill="#111827">Lasagne (Test: 5 Spuren, Fork + Merge)</text>
<text x="586.4" y="47.7" text-anchor="middle" font-size="13" fill="#6b7280">Exerziert alle Features: Aufteilen, Zusammenführen, 5 Farben</text>
<text x="586.4" y="65.9" text-anchor="middle" font-size="13" fill="#9ca3af">Gesamtzeit: 12 min</text>
<text x="167.8" y="144.32" text-anchor="start" font-size="13" fill="#1f2937">Mehl + Ei verkneten</text>
<text x="167.8" y="272.32" text-anchor="start" font-size="13" fill="#1f2937">Teig ruhen lassen,<tspan x="167.8" dy="16.25">dann ausrollen</tspan></text>
<text x="234" y="299.4" text-anchor="middle" font-size="11" fill="#6b7280">ausrollen</text>
<text x="377.8" y="336.32" text-anchor="start" font-size="13" fill="#1f2937">Platten schneiden,<tspan x="377.8" dy="16.25">vorkochen</tspan></text>
<text x="587.8" y="144.32" text-anchor="start" font-size="13" fill="#1f2937">Soffritto anschwitzen</text>
<text x="587.8" y="400.32" text-anchor="start" font-size="13" fill="#1f2937">Hackfleisch + Tomaten,<tspan x="587.8" dy="16.25">köcheln lassen</tspan></text>
<text x="797.8" y="272.32" text-anchor="start" font-size="13" fill="#1f2937">Mehlschwitze + Milch</text>
<text x="797.8" y="400.32" text-anchor="start" font-size="13" fill="#1f2937">Muskat, glatt rühren</text>
<text x="377.8" y="528.32" text-anchor="start" font-size="13" fill="#1f2937">schichten</text>
<text x="654" y="539.15" text-anchor="middle" font-size="11" fill="#6b7280">in die Form</text>
<text x="587.8" y="528.32" text-anchor="start" font-size="13" fill="#1f2937">Schicht Ragù</text>
<text x="759" y="539.15" text-anchor="middle" font-size="11" fill="#6b7280">schichten</text>
<text x="797.8" y="528.32" text-anchor="start" font-size="13" fill="#1f2937">Schicht Béchamel</text>
<text x="864" y="539.15" text-anchor="middle" font-size="11" fill="#6b7280">schichten</text>
<text x="1007.8" y="592.32" text-anchor="start" font-size="13" fill="#1f2937">Parmesan drüber</text>
<text x="1007.8" y="912.32" text-anchor="start" font-size="13" fill="#1f2937">40 Min backen,<tspan x="1007.8" dy="16.25">ruhen lassen</tspan></text>
<g transform="translate(1032.8 4) scale(0.21732)"><path d="M21.166667 132.23877Q21.166667 141.53235 26.195607 148.84616L55.517438 168.85028L396.26727 130.90277Q402.16667 125.90575 402.16667 116.61217V95.335596L402.16659 95.301486L402.16548 95.063731L402.1598 94.807448L402.10218 93.35966L402.06816 92.89073L401.92619 91.547979L401.85563 91.050961L401.63283 89.805474L401.51878 89.285336L401.21768 88.130427L401.05364 87.59449L400.6759 86.524667L400.4566 85.982626L400.00313 84.993649L399.72542 84.457244L399.19652 83.546099L398.86022 83.028354L398.25569 82.193151L397.86415 81.707236L397.1834 80.94702L396.92175 80.672919L396.76368 80.517579L396.48636 80.261944L395.72301 79.602182L395.22615 79.217208L394.40329 78.647509L360.62853 55.605472L360.08899 55.273553L359.20572 54.793854L358.63579 54.522779L357.6908 54.133684L357.10452 53.927296L356.09593 53.62999L355.50758 53.487997L354.43268 53.284265L353.85538 53.202709L352.71044 53.095064L352.15509 53.067257L350.9353 53.059107L350.41002 53.076762L349.10945 53.17258L348.82122 53.200117L348.5927 53.226942L348.31548 53.265313L347.00301 53.4746L346.51274 53.571141L345.24997 53.867369L344.745 54.005768L343.52882 54.38769L343.01592 54.5702L341.84375 55.037219L341.3307 55.264444L340.20048 55.816561L339.69561 56.087199L338.97938 56.50632L338.52997 56.303062L337.5753 56.048668L336.57967 55.949221L335.71367 55.99913L325.22623 57.16706L324.42342 57.295728L323.498 57.579618L322.60524 57.989769L321.76204 58.518425L320.98434 59.155594L320.53055 59.634212L297.15417 43.686233L296.29286 43.250906L295.366 42.958872L294.39343 42.816382L293.39597 42.826487L292.54172 42.965944L280.53437 45.563765L279.63368 45.810904L278.61699 46.264415L277.6637 46.870616L276.79699 47.614764L276.14933 48.352224L274.78255 50.072198L274.20932 50.871115L273.67515 51.889841L273.29134 52.966265L273.06722 54.074204L273.01705 55.023626V67.240096L272.70294 67.025797L271.82952 66.430272L271.32993 66.12502L270.36853 65.601578L269.86423 65.357344L268.81051 64.907389L268.3127 64.720641L267.16111 64.346152L266.67893 64.211196L265.42263 63.914879L264.96287 63.824818L263.59384 63.61024L263.16099 63.557801L261.67012 63.429477L261.26666 63.40763L259.64386 63.371063L259.27068 63.373406L257.50504 63.435079L257.16183 63.45604L255.2417 63.623386L254.90444 63.661404L253.16253 63.902296L252.82189 63.958225L250.94782 64.314569L250.6264 64.383616L248.64466 64.858458L248.34537 64.937158L246.24909 65.53764L246.10018 65.582054L245.98657 65.617287L245.83439 65.666347L243.81669 66.341571L243.52963 66.444387L241.53613 67.205757L241.25187 67.321166L239.28108 68.169302L239.00094 68.296769L237.05144 69.232565L236.30166 69.634928L236.30115 69.635294L235.64557 70.106065L210.86916 53.202943L210.00264 52.769683L209.07063 52.481011L208.09322 52.343154L207.0915 52.359085L206.23433 52.50439L194.22698 55.180999L193.33098 55.432546L192.32039 55.88955L191.37342 56.497534L190.51292 57.241835L189.8702 57.978191L188.51288 59.696087L187.9441 60.49306L187.41426 61.508448L187.03364 62.580735L186.81141 63.684061L186.76172 64.629427V71.623733L167.0492 58.175336L166.1879 57.74001L165.26103 57.447975L164.28846 57.305486L163.291 57.315591L162.43676 57.455048L150.42941 60.052868L149.52872 60.300008L148.51203 60.753518L147.55873 61.35972L146.69202 62.103868L146.04437 62.841327L144.67758 64.561302L144.10435 65.360218L143.57018 66.378945L143.18637 67.455368L142.96225 68.563307L142.91209 69.512729V77.98642L142.61344 77.904314L141.95493 77.743159L141.61499 77.670145L140.28253 77.423193L139.83936 77.357511L138.43892 77.201084L138.00681 77.167772L136.53439 77.104623L136.11745 77.100246L134.56856 77.133793L134.16993 77.154555L132.53963 77.2889L132.27051 77.316569L131.6636 77.391347L131.38153 77.432139L129.8799 77.681476L129.46115 77.764408L128.01551 78.097218L127.58416 78.211021L126.1912 78.625799L125.75134 78.772358L124.40813 79.268155L123.96451 79.448519L122.66851 80.024916L122.22639 80.239127L120.97543 80.896211L120.54034 81.143186L119.3326 81.881539L118.91004 82.15905L117.74401 82.979744L117.49237 83.16437L117.21251 83.378294L116.97305 83.568701L115.85068 84.496668L115.47415 84.828227L114.4174 85.818532L114.05739 86.177634L113.06469 87.231418L112.72589 87.614263L111.79612 88.733035L111.48253 89.134984L111.02213 89.764201L105.38613 85.91917L104.33121 85.248808L103.91918 85.009882L102.80755 84.424172L102.37931 84.220103L101.20906 83.719035L100.7706 83.551447L99.539422 83.13556L99.096865 83.004736L97.802013 82.67512L97.36125 82.580087L95.999516 82.338402L95.56591 82.277116L94.1336 82.12562L93.711758 82.095212L92.204694 82.036789L91.79834 82.033847L90.211873 82.072035L89.823814 82.092865L88.152856 82.231873L87.908354 82.256746L87.410167 82.31666L87.157323 82.351917L85.596064 82.599592L85.194549 82.675588L83.700303 83.004386L83.283389 83.109616L81.852166 83.517562L81.423224 83.654533L80.051446 84.140216L79.614655 84.310791L78.299175 84.87334L77.859423 85.078517L76.597534 85.717572L76.16024 85.957292L74.949662 86.672979L74.52052 86.946007L73.359378 87.738923L73.101389 87.922795L72.821201 88.131065L72.583575 88.315004L70.793456 87.093738L70.004306 86.604393L69.144689 86.243713L68.231697 86.018869L67.283483 85.934332L66.460219 85.984465L66.317012 86.000413L45.27411 71.644389L44.407592 71.211129L43.475578 70.922458L42.49817 70.7846L41.496449 70.800531L40.639282 70.945836L28.631931 73.622445L27.735935 73.873992L26.725338 74.330996L25.77837 74.938981L24.917866 75.683282L24.27515 76.419638L22.917829 78.137534L22.349052 78.934507L21.819214 79.949895L21.43859 81.022182L21.216359 82.125507L21.166667 83.070874z" fill="url(#d0)"/><path d="M28.006297 140.77066L29.526215 142.17718L41.533566 140.83998L43.053484 139.09493V121.70897L52.586216 138.78722L53.920896 139.46047L67.448165 137.95401L68.760719 135.4375L56.024966 114.24233L67.710656 95.407799L66.460219 93.07548L54.22488 94.438065L52.963462 95.275235L43.053484 111.66333V79.294041L41.370969 77.914675L29.363618 80.591284L28.006297 82.30918zM66.688206 115.50497L66.689607 115.85408L66.748042 117.73779L66.889512 119.51222L67.110571 121.18365L67.408326 122.7579L67.780435 124.24029L68.225096 125.6356L68.741029 126.94804L69.327454 128.18123L69.984058 129.33821L70.710978 130.42143L71.508777 131.4328L72.378447 132.37371L72.612995 132.60368L73.566443 133.45106L74.572468 134.21122L75.632271 134.88541L76.747363 135.4743L77.919593 135.97799L79.151183 136.39603L80.444772 136.72741L81.803447 136.97058L83.230761 137.12336L84.730739 137.18298L86.307865 137.146L87.967056 137.00834L88.465243 136.94843L90.026503 136.70075L91.520749 136.37195L92.951972 135.96401L94.32375 135.47833L95.639229 134.91578L96.901118 134.27672L98.111697 133.56103L99.272839 132.76812L99.553027 132.55985L100.66925 131.66053L101.71942 130.69875L102.70515 129.67345L103.62761 128.58318L104.48755 127.42609L105.28531 126.19993L106.02084 124.90197L106.69371 123.52899L107.18391 122.37748L107.7167 120.9159L108.17301 119.39804L108.55157 117.82081L108.85064 116.18076L109.06797 114.4741L109.20081 112.69675L109.24591 110.84433L109.24501 110.56462L109.18968 108.67084L109.05123 106.88734L108.83316 105.20777L108.53839 103.62623L108.16933 102.13735L107.7278 100.73626L107.21513 99.418705L106.63215 98.180985L105.97919 97.020006L105.25617 95.933253L104.46255 94.918766L103.59739 93.975108L103.33405 93.715564L102.38818 92.873599L101.38841 92.118015L100.33349 91.447653L99.221868 90.861942L98.05162 90.360874L96.820441 89.944987L95.525589 89.615371L94.163855 89.373686L92.731545 89.22219L91.22448 89.163767L89.638014 89.201955L87.967056 89.340963L87.468869 89.400876L85.90761 89.648552L84.413364 89.97735L82.982141 90.385296L81.610363 90.870979L80.294883 91.433528L79.032994 92.072583L77.822416 92.78827L76.661274 93.581186L76.381085 93.789456L75.264859 94.688775L74.214693 95.65055L73.228962 96.675853L72.306498 97.766128L71.446559 98.923213L70.648801 100.14937L69.91327 101.44733L69.240401 102.82031L68.7502 103.97182L68.217417 105.43341L67.761107 106.95126L67.382542 108.52849L67.083474 110.16855L66.866143 111.8752L66.733299 113.65255zM82.191368 113.77847L82.210088 112.47945L82.297696 110.79922L82.447641 109.32684L82.650009 108.04545L82.895317 106.93895L83.174589 105.99178L83.479535 105.18867L83.802924 104.51431L84.111693 103.99126L84.47717 103.4842L84.859213 103.05579L85.262211 102.69289L85.694409 102.3848L86.167292 102.12455L86.694378 101.90985L87.289784 101.74335L87.967056 101.63206L88.602341 101.59075L89.210949 101.6149L89.749819 101.70155L90.231729 101.8449L90.669496 102.04365L91.074733 102.30165L91.456435 102.62771L91.819891 103.03475L92.166268 103.5384L92.286928 103.7481L92.605357 104.41526L92.904828 105.24461L93.175234 106.25709L93.405702 107.47381L93.584919 108.91643L93.701251 110.60754L93.742744 112.57084L93.724024 113.86985L93.636417 115.55009L93.486472 117.02247L93.284104 118.30385L93.038795 119.41035L92.759524 120.35752L92.454577 121.16063L92.131188 121.835L91.82242 122.35805L91.456943 122.8651L91.0749 123.29352L90.671901 123.65641L90.239704 123.9645L89.76682 124.22476L89.239734 124.43945L88.644329 124.60595L87.967056 124.71725L87.331771 124.75856L86.723163 124.7344L86.184293 124.64775L85.702384 124.50441L85.264617 124.30566L84.85938 124.04766L84.477677 123.7216L84.114222 123.31455L83.767844 122.8109L83.647184 122.60121L83.328756 121.93405L83.029284 121.1047L82.758878 120.09221L82.528411 118.8755L82.349194 117.43287L82.232861 115.74176zM111.06981 110.95637L111.11069 112.67923L111.23693 114.3743L111.44581 115.98575L111.73505 117.518L112.10294 118.97503L112.54824 120.36036L113.07025 121.67705L113.66869 122.92769L113.81629 123.2048L114.50776 124.37783L115.26277 125.46822L116.08159 126.4785L116.9649 127.4106L117.91374 128.26589L118.92957 129.04523L120.01422 129.74897L121.17 130.37699L121.38224 130.48012L122.56823 130.98967L123.80935 131.41233L125.10802 131.74734L126.467 131.99336L127.88952 132.1485L129.37919 132.21025L130.94008 132.17548L132.57665 132.04041L133.65332 131.89676L135.13372 131.61916L136.57969 131.25371L137.99342 130.80085L139.37687 130.26049L140.73179 129.63204L142.05975 128.91442L143.36214 128.10604L144.6402 127.20478L145.89503 126.20798L147.12756 125.11246L147.42269 122.94041L142.17897 115.80305L140.14194 115.59357L139.91168 115.76454L138.47945 116.77807L137.30458 117.52811L136.36063 118.055L135.67153 118.36786L134.91565 118.62932L134.08979 118.83275L133.18461 118.97251L132.80549 119.00686L132.05187 119.02349L131.37983 118.96928L130.77847 118.85198L130.23648 118.6764L129.74268 118.44371L129.28696 118.15101L128.86125 117.79135L128.46038 117.35429L128.14791 116.91217L127.83898 116.3379L127.54768 115.61895L127.28359 114.73482L127.05754 113.66518L126.88105 112.38946L126.76608 110.88648L126.72496 109.13415L126.7267 108.74537L126.78025 107.02422L126.90092 105.51076L127.07861 104.18844L127.30368 103.04146L127.56697 102.0546L127.85998 101.21292L128.17519 100.50153L128.5066 99.905269L128.82699 99.43188L129.23183 98.935595L129.6635 98.504569L130.12861 98.129037L130.63662 97.80211L131.199 97.520559L131.82822 97.285111L132.53677 97.100215L133.3366 96.973434L134.02009 96.924635L134.83177 96.937895L135.65346 97.030277L136.49115 97.206175L137.35003 97.471899L138.23443 97.83539L139.14774 98.305923L140.09251 98.893844L142.24366 98.323301L147.41138 90.341628L147.16169 88.242909L146.55916 87.797499L145.36944 87.008892L144.15914 86.323099L142.92701 85.737352L141.67168 85.249543L140.39167 84.858207L139.73315 84.697053L138.4007 84.450101L137.00026 84.293674L135.52785 84.230526L133.97896 84.264073L132.34866 84.398418L131.74175 84.473196L130.24012 84.722532L128.79448 85.055342L127.40153 85.47012L126.05832 85.965918L124.76232 86.542315L123.51136 87.199399L122.30361 87.937751L121.13758 88.758444L120.85771 88.972369L119.73535 89.900337L118.6786 90.890642L117.6859 91.944426L116.75613 93.063199L115.88858 94.248857L115.08293 95.503716L114.33925 96.830542L113.65797 98.232575L113.15508 99.420998L112.61383 100.9102L112.15136 102.44742L111.7686 104.03531L111.46696 105.67682L111.24829 107.37515L111.11496 109.13376zM149.75172 127.21252L151.27163 128.61903L163.27899 127.28184L164.7989 125.53679V97.345398L165.309 96.527553L165.98675 95.570274L166.62943 94.778332L167.23628 94.134015L167.80745 93.620071L168.34455 93.219734L168.85136 92.917044L169.33445 92.697607L169.80345 92.549819L170.27061 92.466344L170.58014 92.444882L170.9626 92.462286L171.26508 92.524522L171.51025 92.62203L171.72148 92.756218L171.91791 92.940958L171.98208 93.022221L172.1224 93.269278L172.27361 93.67758L172.41176 94.285024L172.51198 95.12514L172.55048 96.230688V124.67354L174.0704 126.08005L186.07775 124.74286L187.59767 122.99781V92.427657L187.59657 92.189902L187.53895 90.742114L187.39698 89.399363L187.17418 88.153876L186.87308 86.998967L186.49535 85.929144L186.04188 84.940167L185.51298 84.029022L184.90845 83.193819L184.2277 82.433603L184.06963 82.278263L183.30628 81.618501L182.48343 81.048802L181.60015 80.569103L180.65516 80.180009L179.64656 79.882703L178.57166 79.67897L177.42673 79.571325L176.20693 79.563175L174.90636 79.658992L173.68685 79.836803L172.44206 80.110449L171.24531 80.470131L170.09389 80.915116L168.98565 81.445286L167.91897 82.061097L167.4624 82.358317L166.37482 83.1469L165.30038 84.043547L164.7989 84.520158V65.814685L163.12585 64.433241L151.1185 67.031061L149.75172 68.751036zM193.60135 122.32921L195.12126 123.73573L205.76069 122.55087L207.26225 121.05207L207.39797 120.13988L208.22468 120.72566L209.22125 121.30464L210.27905 121.79856L211.09202 122.10161L212.17464 122.40673L213.29784 122.61515L214.4635 122.72583L215.67397 122.73702L216.93209 122.64619L217.33806 122.59652L218.62949 122.37681L219.87069 122.07045L221.06476 121.67861L222.21425 121.20183L223.32114 120.64004L224.38697 119.99262L225.41287 119.25837L226.39968 118.43549L227.08229 117.79332L228.01661 116.80724L228.89478 115.74632L229.71711 114.60809L230.48352 113.38949L231.19362 112.08681L231.84661 110.69571L232.44129 109.21117L232.96773 107.65348L233.4208 106.03033L233.79691 104.34433L234.09417 102.59195L234.31023 100.76936L234.44231 98.872448L234.48714 96.896879L234.46783 95.410202L234.37002 93.325104L234.19376 91.382285L233.94325 89.573072L233.62211 87.889297L233.23344 86.323349L232.77973 84.868231L232.26294 83.517612L231.68448 82.265883L231.04523 81.108187L230.34562 80.040448L230.29708 79.972724L229.55368 79.025479L228.76281 78.177765L227.92395 77.42619L227.03634 76.768377L226.09901 76.202866L225.11078 75.729002L224.07017 75.346844L222.97532 75.057104L221.82384 74.861139L220.61272 74.761L219.33826 74.759503L217.99603 74.860323L216.85276 75.028341L215.64265 75.298967L214.46553 75.660502L213.31956 76.112951L212.20325 76.656936L211.11541 77.2937L210.23308 77.892888L209.23286 78.673749L208.64853 79.20339V60.852594L206.96602 59.473229L194.95867 62.149838L193.60135 63.867734zM208.64853 108.42612V91.958902L209.08958 91.22027L209.64302 90.424459L210.18775 89.7563L210.72309 89.201535L211.2502 88.746441L211.77253 88.378274L212.2961 88.086014L212.82942 87.861319L213.38298 87.699463L213.96825 87.599968L214.16267 87.5817L214.72829 87.570973L215.22764 87.624011L215.67445 87.734064L216.08275 87.899627L216.46535 88.125178L216.83203 88.42095L217.18831 88.801716L217.53506 89.285066L217.7296 89.609247L218.10128 90.340327L218.40927 91.120362L218.65394 91.95648L218.83376 92.856481L218.94542 93.828529L218.98397 94.880904V98.623384L218.97592 99.482366L218.90469 101.21933L218.76813 102.75041L218.57595 104.09182L218.33739 105.25905L218.06123 106.26706L217.75555 107.13048L217.4275 107.86389L217.08279 108.48205L216.72495 108.99999L216.35452 109.43276L215.96823 109.79464L215.5587 110.09789L215.11479 110.35117L214.6228 110.55831L214.06804 110.71781L213.43627 110.82319L212.8938 110.85503L212.33083 110.8235L211.78582 110.72402L211.24861 110.55342L210.71071 110.30434L210.40419 110.12598L209.87049 109.7469L209.36297 109.2904L208.87881 108.74672zM235.47508 105.92639L235.49456 106.81031L235.59814 108.0981L235.7888 109.31419L236.06483 110.46266L236.42529 111.54671L236.86988 112.56868L237.39888 113.53014L238.01312 114.43203L238.71403 115.27482L239.50368 116.05859L240.0127 116.49212L240.88842 117.1276L241.8213 117.67465L242.81276 118.13327L243.86467 118.50285L244.97947 118.78216L246.16032 118.96934L247.41112 119.06177L248.73661 119.05602L250.14229 118.94774L251.28621 118.79076L252.64644 118.5212L253.93525 118.17239L255.1573 117.74617L256.31651 117.24365L257.41605 116.66535L258.45838 116.01127L259.44527 115.28089L260.37793 114.47327L261.25711 113.58692L262.08318 112.6198L262.12274 112.56604L262.26485 112.76721L262.90954 113.50013L263.61369 114.13898L264.37776 114.68458L265.20225 115.13671L265.67759 115.34638L266.69441 115.7032L267.81585 115.97939L269.05087 116.17141L270.41006 116.27449L271.90544 116.2825L273.47655 115.01777L275.98442 106.62321L275.06242 104.76647L274.78364 104.67937L274.40814 104.51431L274.12476 104.33236L273.91098 104.13632L273.74629 103.9193L273.70659 103.85051L273.57994 103.54712L273.45419 103.04852L273.35868 102.3171L273.32104 101.31774V85.087192L273.29728 83.939243L273.19107 82.474649L273.0033 81.113569L272.7371 79.848805L272.39472 78.674144L271.97767 77.584442L271.48673 76.575658L270.92213 75.64483L270.28363 74.789988L269.57056 74.010012L268.78178 73.304468L268.54694 73.120427L267.67351 72.524902L266.71211 72.00146L265.6584 71.551506L264.5068 71.177017L263.25049 70.8807L261.88146 70.666122L260.39059 70.537798L258.76779 70.501232L257.00215 70.562905L255.08202 70.730251L253.34012 70.971144L251.46605 71.327488L249.48431 71.80233L247.38803 72.402812L247.27442 72.438045L245.25673 73.113269L243.26323 73.874639L241.29244 74.722774L239.34294 75.658569L238.44654 77.746866L241.1824 85.63625L243.09934 86.402233L244.93504 85.601605L246.84838 84.851419L248.69634 84.213205L249.36904 84.003334L250.87708 83.586514L252.14015 83.310881L253.18213 83.154136L254.01603 83.080633L254.99765 83.054719L255.79115 83.101019L256.41693 83.201513L256.89551 83.338653L257.24879 83.496317L257.50097 83.662094L257.66145 83.812437L257.85121 84.061806L258.03861 84.416131L258.21379 84.905249L258.3614 85.556661L258.46361 86.395672L258.50184 87.44663V87.682997L255.91798 87.970748L255.42952 88.027652L253.45882 88.311453L251.62687 88.662603L249.92432 89.077176L248.34234 89.551863L246.87269 90.083996L245.50778 90.671541L244.24077 91.313082L243.06568 92.00778L241.97737 92.755305L240.97166 93.555759L240.7034 93.790329L239.80947 94.649537L239.00135 95.553285L238.27683 96.502526L237.6346 97.498317L237.07414 98.541866L236.59556 99.634647L236.19954 100.77855L235.88729 101.97608L235.66065 103.23043L235.52214 104.5456zM250.44627 103.15608L250.45502 102.78426L250.51782 102.13441L250.63136 101.57649L250.78673 101.09622L250.97942 100.67758L251.21071 100.30394L251.48836 99.960067L251.82589 99.634515L252.02637 99.473077L252.50953 99.148519L253.1102 98.832965L253.84742 98.53438L254.73933 98.263126L255.80358 98.030878L257.05792 97.850009L258.50184 97.689207V103.06545L258.39748 103.24854L257.95275 103.9154L257.49779 104.48273L257.03187 104.96327L256.55154 105.36875L256.05048 105.70905L255.51976 105.99122L254.94858 106.21874L254.32525 106.39104L253.6381 106.50371L253.62406 106.50525L253.06055 106.53505L252.58886 106.50087L252.19306 106.41515L251.85545 106.285L251.55821 106.11007L251.28616 105.8816L251.08891 105.65771L250.8859 105.34337L250.71322 104.9573L250.57491 104.47796L250.48115 103.8841zM279.85668 112.72341L281.3766 114.12993L293.38395 112.79273L294.90387 111.04769V82.856295L295.41397 82.03845L296.09172 81.08117L296.7344 80.289228L297.34125 79.644911L297.91242 79.130967L298.44952 78.73063L298.95633 78.427941L299.43942 78.208504L299.90841 78.060715L300.37558 77.97724L300.6851 77.955779L301.06757 77.973183L301.37005 78.035418L301.61522 78.132926L301.82645 78.267115L302.02288 78.451855L302.08705 78.533118L302.22737 78.780174L302.37858 79.188476L302.51673 79.795921L302.61695 80.636037L302.65545 81.741584V110.18443L304.17537 111.59095L316.18272 110.25375L317.70264 108.50871V77.938554L317.70154 77.700799L317.64392 76.25301L317.50195 74.910259L317.27915 73.664772L316.97805 72.509863L316.60032 71.440041L316.14685 70.451063L315.61795 69.539919L315.01341 68.704715L314.33267 67.944499L314.1746 67.78916L313.41125 67.129398L312.58839 66.559699L311.70512 66.08L310.76012 65.690906L309.75153 65.393599L308.67663 65.189867L307.53169 65.082221L306.3119 65.074071L305.01133 65.169888L303.79182 65.3477L302.54703 65.621345L301.35028 65.981028L300.19886 66.426013L299.09062 66.956183L298.02394 67.571994L297.56737 67.869214L296.47979 68.657796L295.40535 69.554444L294.90387 70.031055V51.325582L293.23082 49.944137L281.22347 52.541957L279.85668 54.261932zM323.70631 107.84011L325.22623 109.24663L337.23358 107.90943L338.7535 106.16438V78.043866L339.30371 77.155104L339.97859 76.194958L340.61813 75.401327L341.22151 74.756318L341.78882 74.242495L342.32157 73.842892L342.82349 73.541325L343.30115 73.323153L343.76426 73.176531L344.22521 73.093938L344.59934 73.069587L344.99165 73.090749L345.29328 73.154984L345.52769 73.250278L345.72001 73.375497L345.89193 73.542974L345.94164 73.607258L346.0781 73.849006L346.22798 74.257756L346.36598 74.872566L346.46643 75.728038L346.50508 76.858282V105.30113L348.025 106.70765L360.03235 105.37045L361.55227 103.62541V73.055252L361.55117 72.817497L361.49355 71.369709L361.35158 70.026957L361.12878 68.78147L360.82768 67.626561L360.44995 66.556739L359.99648 65.567761L359.46758 64.656617L358.86304 63.821414L358.1823 63.061197L358.02423 62.905858L357.26088 62.246096L356.43802 61.676397L355.55475 61.196698L354.60975 60.807604L353.60116 60.510297L352.52626 60.306565L351.38132 60.198919L350.16153 60.190769L348.86096 60.286587L348.63244 60.313412L347.31997 60.522699L346.0572 60.818928L344.84101 61.200849L343.66884 61.667868L342.53862 62.219984L341.44873 62.857765L340.64594 63.398202L339.55916 64.22847L338.49119 65.163178L337.53461 66.114043L337.21093 64.228147L335.71367 63.090145L325.22623 64.258075L323.70631 66.003121z" fill="#fff"/><defs><linearGradient id="d0" gradientUnits="userSpaceOnUse" x1="21.166667" y1="105.83333" x2="402.16667" y2="105.83333"><stop offset="0" stop-color="#f59e0b"/><stop offset=".55" stop-color="#ef4444"/><stop offset="1" stop-color="#b91c1c"/></linearGradient></defs></g>
</svg>
